<?xml version="1.0" standalone="no"?>
<!DOCTYPE svg PUBLIC "-//W3C//DTD SVG 20010904//EN"
 "http://www.w3.org/TR/2001/REC-SVG-20010904/DTD/svg10.dtd">
<svg version="1.0" xmlns="http://www.w3.org/2000/svg"
 width="271.000000pt" height="271.000000pt" viewBox="0 0 271.000000 271.000000"
 preserveAspectRatio="xMidYMid meet">
<metadata>
Created by potrace 1.14, written by Peter Selinger 2001-2017
</metadata>
<g transform="translate(0.000000,271.000000) scale(0.100000,-0.100000)"
fill="#000000" stroke="none">
<path d="M998 2703 c-2 -5 -3 -153 -3 -331 1 -177 -2 -319 -7 -314 -4 4 -86
122 -181 262 -146 214 -178 256 -201 258 l-26 3 0 -450 0 -451 55 0 55 0 1 38
c0 20 1 158 1 306 0 217 2 266 13 255 12 -14 35 -46 206 -298 l84 -124 0 -491
1 -491 382 -3 382 -2 -1 50 c-1 28 0 52 2 54 2 2 24 7 49 11 111 16 247 90
300 165 l20 28 -40 32 -41 32 -50 -47 c-55 -51 -131 -90 -196 -101 l-43 -7 0
92 c0 50 -1 165 -1 256 0 91 1 210 1 265 l0 101 38 -7 c61 -10 154 -58 198
-102 23 -23 46 -42 50 -42 5 0 26 15 47 33 l38 32 -44 46 c-74 78 -171 128
-277 143 -24 3 -45 8 -47 10 -2 2 -4 182 -4 400 l0 396 -379 0 c-208 0 -380
-3 -382 -7z"/>
<path d="M682 724 c8 -7 1329 -7 1336 1 3 3 -298 5 -668 5 -370 0 -671 -3
-668 -6z"/>
<path d="M1591 479 c-90 -40 -101 -169 -19 -219 43 -26 102 -26 144 1 19 11
34 24 34 29 0 17 -26 16 -49 -1 -43 -34 -119 -19 -140 28 -43 94 62 186 141
124 16 -13 29 -17 38 -11 12 7 10 13 -10 30 -13 11 -35 23 -49 26 -14 3 -31 7
-37 9 -6 2 -30 -5 -53 -16z"/>
<path d="M1029 473 c-1 -22 -1 -203 0 -221 1 -8 7 -12 14 -10 7 3 14 33 17 83
l5 79 42 -63 42 -62 45 68 46 68 -1 -65 c-2 -101 0 -110 16 -110 13 0 15 21
15 125 0 69 -3 125 -7 125 -5 0 -30 -34 -58 -75 -27 -41 -52 -75 -56 -75 -4 0
-30 34 -58 75 -29 41 -54 75 -57 75 -2 0 -4 -8 -5 -17z"/>
<path d="M1038 102 c-27 -5 -22 -41 7 -54 33 -15 26 -34 -11 -31 -27 2 -28 2
-7 -9 12 -6 29 -8 37 -5 22 9 20 44 -3 52 -11 3 -22 13 -25 22 -5 12 -1 14 19
11 14 -3 25 -2 25 2 0 11 -22 17 -42 12z"/>
<path d="M1190 67 c0 -26 0 -50 0 -54 0 -5 17 -9 37 -11 21 -2 35 -1 32 2 -3
3 -17 7 -31 8 -22 2 -25 7 -27 47 -2 60 -11 66 -11 8z"/>
<path d="M1359 106 c-6 -7 2 -106 9 -106 4 0 6 23 5 51 -2 51 -6 63 -14 55z"/>
<path d="M1486 101 c-2 -5 -1 -73 3 -93 2 -11 39 -10 62 2 24 13 26 62 3 81
-17 14 -62 21 -68 10z m62 -24 c14 -16 5 -54 -15 -61 -23 -9 -33 2 -33 40 0
27 4 34 19 34 10 0 23 -6 29 -13z"/>
<path d="M1676 100 c-1 -4 0 -51 3 -87 1 -8 15 -13 33 -13 17 0 28 3 24 7 -4
4 -15 8 -24 8 -9 0 -18 8 -20 19 -2 10 0 16 5 13 4 -2 17 -1 28 4 17 7 17 8
-7 8 -32 1 -40 31 -9 31 11 0 22 4 25 9 3 5 -8 8 -25 7 -17 0 -32 -3 -33 -6z"/>
</g>
</svg>
